<svg width="355" height="274" viewBox="0 0 355 274" fill="none" xmlns="http://www.w3.org/2000/svg">
<g clip-path="url(#clip0_279_3528)">
<rect width="355" height="274" fill="#ECECEC"/>
<g filter="url(#filter0_d_279_3528)">
<path d="M109.18 221.693C103.888 224.78 103.888 232.426 109.18 235.513L234.731 308.752C237.222 310.205 240.302 310.205 242.793 308.752L368.345 235.513C373.637 232.426 373.637 224.78 368.345 221.693L242.793 148.454C240.302 147.001 237.222 147.001 234.731 148.454L109.18 221.693Z" fill="#FDFDFD" shape-rendering="crispEdges"/>
<path d="M109.18 221.693C103.888 224.78 103.888 232.426 109.18 235.513L234.731 308.752C237.222 310.205 240.302 310.205 242.793 308.752L368.345 235.513C373.637 232.426 373.637 224.78 368.345 221.693L242.793 148.454C240.302 147.001 237.222 147.001 234.731 148.454L109.18 221.693Z" stroke="url(#paint0_linear_279_3528)" stroke-linecap="round" stroke-linejoin="round" shape-rendering="crispEdges"/>
</g>
<g clip-path="url(#clip1_279_3528)">
<path d="M234.599 211.06C234.55 214.587 238.91 217.516 244.345 217.606C249.799 217.709 254.24 214.946 254.271 211.43C254.32 207.903 249.96 204.974 244.525 204.884C239.089 204.794 234.667 207.546 234.599 211.06ZM249.325 211.349C249.3 213.101 247.098 214.471 244.409 214.408C241.701 214.357 239.539 212.905 239.583 211.166C239.607 209.415 241.809 208.045 244.498 208.108C247.187 208.146 249.349 209.598 249.325 211.349ZM210.494 182.176L210.417 187.697C210.402 188.768 211.762 189.681 213.436 189.725L246.723 190.351C248.378 190.383 249.763 189.521 249.798 188.438L249.875 182.917C249.89 181.846 248.53 180.933 246.856 180.889L213.569 180.263C211.876 180.231 210.491 181.093 210.494 182.176ZM234.344 237.187C234.358 236.214 233.128 235.388 231.624 235.36L227.298 235.278C225.794 235.25 224.541 236.029 224.527 237.002L224.408 242.791L221.963 242.745C220.609 242.719 219.49 243.416 219.477 244.292C219.465 245.167 220.564 245.906 221.919 245.931L236.7 246.209C238.055 246.235 239.174 245.538 239.187 244.663C239.199 243.787 238.099 243.048 236.745 243.023L234.3 242.977L234.344 237.187Z" fill="#F5A800"/>
<path d="M215.225 194.904L215.052 207.164C215.037 208.259 216.397 209.172 218.09 209.204L229.788 209.424C231.018 204.849 237.218 201.45 244.665 201.59L244.751 195.46C244.767 194.366 243.406 193.452 241.714 193.42L218.318 192.98C216.644 192.96 215.259 193.822 215.225 194.904ZM229.78 212.612L222.86 212.481C221.242 212.451 219.914 213.278 219.899 214.324L219.677 230.086C219.663 231.132 220.967 232.008 222.584 232.038L236.388 232.298C238.006 232.329 239.334 231.502 239.349 230.456L239.492 220.313C234.43 219.074 230.634 216.131 229.78 212.612Z" fill="#425CC7"/>
<path d="M229.172 281.97C229.139 284.342 232.073 286.313 235.729 286.373C239.398 286.442 242.386 284.584 242.407 282.219C242.44 279.846 239.506 277.875 235.85 277.815C232.193 277.738 229.206 279.597 229.172 281.97ZM239.079 282.148C239.063 283.326 237.582 284.248 235.772 284.205C233.963 284.163 232.496 283.194 232.525 282.024C232.542 280.846 234.023 279.925 235.832 279.967C237.641 280.009 239.083 280.977 239.079 282.148ZM243.61 274.024C242.576 274.667 242.389 275.401 242.543 276.132L241.552 275.467L239.574 276.698L248.487 282.685L250.466 281.454L247.52 279.475C248.544 279.551 249.672 279.466 250.731 278.807C252.391 277.774 252.657 275.987 250.363 274.446L250.337 274.429C248.043 272.888 245.245 273.007 243.61 274.024ZM248.384 275.677C249.537 276.452 249.498 277.433 248.566 278.013C247.634 278.593 246.116 278.564 244.975 277.798L244.95 277.781C243.809 277.015 243.823 276.033 244.755 275.453C245.687 274.873 247.218 274.894 248.359 275.66L248.384 275.677ZM251.641 269.027C249.611 270.29 249.811 272.242 251.767 273.556L251.792 273.572C253.886 274.979 256.873 274.986 258.966 273.683C260.23 272.896 260.674 271.988 260.535 271.052L258.433 271.095C258.386 271.773 258.114 272.202 257.45 272.615C256.569 273.163 255.48 273.241 254.411 272.77L259.224 269.775C259.061 269.65 258.898 269.524 258.735 269.414C256.805 268.118 253.952 267.589 251.641 269.027ZM253.143 271.985C252.419 271.301 252.379 270.58 253.196 270.071C254.026 269.555 255.138 269.625 256.118 270.134L253.143 271.985ZM260.527 263.498C259.506 264.133 259.445 264.869 259.562 265.542L258.584 264.885L256.567 266.141L263.55 270.831L265.567 269.576L261.668 266.957C260.728 266.325 260.737 265.703 261.515 265.219C262.282 264.742 263.218 264.776 264.158 265.408L268.057 268.027L270.074 266.771L265.561 263.74C263.931 262.662 262.047 262.553 260.527 263.498Z" fill="#F5A800"/>
<path d="M263.508 261.254L266.38 259.467L273.79 264.443L275.871 263.148L268.461 258.172L271.347 256.377L269.466 255.113L261.627 259.991L263.508 261.254ZM275.108 254.426C273.078 255.689 273.278 257.641 275.234 258.954L275.259 258.971C277.353 260.377 280.339 260.384 282.433 259.081C283.697 258.295 284.14 257.387 284.001 256.451L281.9 256.493C281.852 257.172 281.581 257.6 280.917 258.013C280.036 258.562 278.946 258.639 277.877 258.169L282.716 255.158C282.553 255.032 282.391 254.907 282.228 254.797C280.259 253.508 277.419 252.988 275.108 254.426ZM276.61 257.384C275.886 256.699 275.845 255.978 276.662 255.47C277.492 254.954 278.605 255.024 279.585 255.533L276.61 257.384ZM277.714 249.981L279.68 248.758L288.97 254.998L287.004 256.221L277.714 249.981ZM286.726 247.213C284.696 248.476 284.896 250.428 286.852 251.741L286.877 251.758C288.971 253.164 291.957 253.171 294.051 251.869C295.315 251.082 295.758 250.174 295.62 249.238L293.518 249.28C293.471 249.959 293.199 250.388 292.535 250.801C291.654 251.349 290.564 251.426 289.495 250.956L294.334 247.945C294.171 247.82 294.009 247.694 293.846 247.584C291.877 246.295 289.05 245.767 286.726 247.213ZM288.216 250.163C287.491 249.478 287.451 248.757 288.268 248.249C289.098 247.732 290.21 247.802 291.19 248.312L288.216 250.163ZM299.953 238.966C298.983 239.57 298.631 240.292 298.72 241.161C297.648 240.92 296.544 241.087 295.612 241.667C294.591 242.303 294.517 243.046 294.634 243.72L293.656 243.063L291.639 244.318L298.622 249.008L300.639 247.753L296.74 245.134C295.8 244.503 295.783 243.897 296.549 243.42C297.303 242.951 298.2 243.009 299.141 243.641L303.04 246.26L305.057 245.004L301.158 242.386C300.218 241.754 300.201 241.148 300.967 240.671C301.72 240.203 302.618 240.261 303.558 240.892L307.457 243.511L309.475 242.256L304.924 239.199C303.244 238.071 301.447 238.037 299.953 238.966ZM307.192 234.462C305.162 235.725 305.363 237.677 307.318 238.99L307.344 239.007C309.437 240.413 312.424 240.421 314.518 239.118C315.782 238.331 316.225 237.423 316.086 236.487L313.985 236.53C313.937 237.208 313.665 237.637 313.001 238.05C312.12 238.598 311.031 238.676 309.962 238.205L314.801 235.194C314.638 235.069 314.475 234.943 314.312 234.833C312.356 233.536 309.516 233.016 307.192 234.462ZM308.707 237.412C307.983 236.728 307.943 236.007 308.76 235.498C309.59 234.982 310.702 235.052 311.682 235.561L308.707 237.412ZM312.41 228.831L310.38 230.094L312.185 231.307L311.33 231.839L313.035 232.984L313.89 232.452L317.225 234.692C318.855 235.786 320.186 235.59 321.438 234.812C322.114 234.391 322.449 233.972 322.633 233.533L321.028 232.455C320.897 232.747 320.653 233.013 320.27 233.251C319.81 233.537 319.393 233.505 318.929 233.193L315.92 231.172L317.606 230.124L315.901 228.979L314.215 230.027L312.423 228.823L312.41 228.831ZM321.03 227.815L319.601 226.855L317.558 228.126L324.654 232.892L326.697 231.621L324.076 229.861C322.384 228.724 322.399 227.66 323.765 226.81L323.867 226.747L321.761 225.332C320.511 226.045 320.461 226.887 321.03 227.815ZM328.323 221.314L331.641 225.624L325.041 223.356L322.833 224.73L332.99 227.819C333.174 228.174 333.096 228.369 332.738 228.592C332.457 228.766 332 228.889 331.556 228.954L332.333 230.385C333.183 230.261 333.933 230.038 334.686 229.569C335.937 228.791 335.986 228.047 335.081 226.696L330.506 219.956L328.323 221.314Z" fill="#425CC7"/>
</g>
<g filter="url(#filter1_d_279_3528)">
<path d="M-41.8204 130.59C-47.1124 133.677 -47.1124 141.323 -41.8204 144.41L83.7311 217.649C86.222 219.102 89.3021 219.102 91.793 217.649L217.345 144.41C222.637 141.323 222.637 133.677 217.345 130.59L91.793 57.3514C89.3021 55.8984 86.222 55.8984 83.7311 57.3514L-41.8204 130.59Z" fill="#FDFDFD"/>
<path d="M-41.8204 130.59C-47.1124 133.677 -47.1124 141.323 -41.8204 144.41L83.7311 217.649C86.222 219.102 89.3021 219.102 91.793 217.649L217.345 144.41C222.637 141.323 222.637 133.677 217.345 130.59L91.793 57.3514C89.3021 55.8984 86.222 55.8984 83.7311 57.3514L-41.8204 130.59Z" stroke="url(#paint1_linear_279_3528)" stroke-linecap="round" stroke-linejoin="round"/>
</g>
<g clip-path="url(#clip2_279_3528)">
<rect width="5.57232" height="50.1508" rx="0.586138" transform="matrix(0.857493 -0.514496 0.830139 0.557556 39.3062 122.485)" fill="#FAFF69"/>
<rect width="5.57232" height="50.1508" rx="0.586138" transform="matrix(0.857493 -0.514496 0.830139 0.557556 48.8633 116.751)" fill="#FAFF69"/>
<rect width="5.57232" height="50.1508" rx="0.586138" transform="matrix(0.857493 -0.514496 0.830139 0.557556 58.4199 111.017)" fill="#FAFF69"/>
<rect width="5.57232" height="50.1508" rx="0.586138" transform="matrix(0.857493 -0.514496 0.830139 0.557556 67.9746 105.284)" fill="#FAFF69"/>
<rect width="5.57232" height="11.1446" rx="0.586138" transform="matrix(0.857493 -0.514496 0.830139 0.557556 93.7251 110.423)" fill="#FAFF69"/>
</g>
<path d="M82.2926 182.703C81.6329 183.099 81.1562 183.53 80.8624 183.998C80.5565 184.457 80.4338 184.944 80.4942 185.46C80.567 185.968 80.8111 186.488 81.2265 187.02C81.6543 187.545 82.2538 188.066 83.0249 188.584C84.0371 189.264 85.0723 189.761 86.1305 190.076C87.1766 190.383 88.2097 190.483 89.2296 190.377C90.2496 190.271 91.2325 189.934 92.1784 189.366C92.7509 189.023 93.2504 188.662 93.6767 188.283C94.1035 187.89 94.5063 187.472 94.8853 187.03L96.5661 188.159C96.2362 188.602 95.8396 189.016 95.3763 189.401C94.925 189.795 94.3385 190.208 93.6166 190.641C92.2599 191.455 90.8562 191.952 89.4054 192.133C87.9671 192.307 86.5238 192.192 85.0757 191.789C83.6275 191.386 82.2347 190.736 80.8972 189.838C79.9212 189.182 79.1665 188.501 78.633 187.795C78.0999 187.072 77.8058 186.353 77.7506 185.635C77.6953 184.917 77.9031 184.218 78.374 183.537C78.8452 182.841 79.5973 182.183 80.6304 181.563C81.3025 181.159 82.0344 180.812 82.8262 180.521C83.606 180.222 84.3837 180 85.1595 179.856L86.0394 181.397C85.411 181.529 84.7693 181.699 84.1144 181.909C83.46 182.102 82.8527 182.367 82.2926 182.703ZM101.572 185.638L99.5932 186.825L85.8571 177.599L87.8361 176.412L101.572 185.638ZM96.9171 176.043L106.659 182.586L104.68 183.773L94.9381 177.23L96.9171 176.043ZM92.2411 174.137C92.5398 173.957 92.8855 173.857 93.2783 173.836C93.671 173.815 94.0662 173.938 94.4638 174.205C94.8494 174.464 95.0205 174.721 94.9772 174.977C94.9219 175.225 94.7448 175.438 94.4461 175.618C94.1225 175.812 93.7644 175.919 93.3716 175.94C92.9793 175.946 92.5904 175.819 92.2048 175.56C91.8072 175.293 91.6298 175.04 91.6727 174.799C91.728 174.552 91.9175 174.331 92.2411 174.137ZM113.999 178.412C113.078 178.964 112.094 179.332 111.047 179.516C110.001 179.699 108.917 179.66 107.797 179.398C106.664 179.128 105.525 178.608 104.38 177.839C103.175 177.03 102.405 176.251 102.068 175.503C101.744 174.747 101.763 174.039 102.123 173.379C102.483 172.703 103.124 172.089 104.045 171.536C104.605 171.2 105.188 170.927 105.794 170.717C106.4 170.491 106.937 170.329 107.405 170.232L108.362 171.635C107.881 171.755 107.393 171.902 106.899 172.076C106.417 172.243 106.001 172.431 105.653 172.64C105.03 173.013 104.646 173.412 104.501 173.837C104.355 174.246 104.442 174.684 104.761 175.151C105.081 175.603 105.626 176.088 106.397 176.606C107.132 177.1 107.852 177.457 108.557 177.677C109.263 177.898 109.941 177.981 110.592 177.928C111.243 177.859 111.861 177.649 112.446 177.298C113.006 176.962 113.438 176.626 113.74 176.291C114.043 175.956 114.285 175.612 114.465 175.259L116.128 176.376C115.972 176.73 115.73 177.066 115.404 177.385C115.077 177.703 114.608 178.046 113.999 178.412ZM114.011 169.441C114.264 169.61 114.541 169.812 114.841 170.046C115.154 170.272 115.437 170.485 115.689 170.686L115.745 170.653C115.724 170.512 115.698 170.344 115.666 170.148C115.635 169.937 115.603 169.726 115.572 169.515C115.541 169.304 115.521 169.117 115.513 168.953L115.394 164.956L117.69 163.579L117.814 168.814L127.694 169.965L125.36 171.365L117.681 170.433L117.463 171.759L120.879 174.053L118.919 175.23L105.183 166.004L107.143 164.828L114.011 169.441ZM139.971 162.599L137.954 163.808L132.062 159.851L125.696 163.671L131.588 167.628L129.572 168.838L116.667 160.171L118.683 158.961L124.033 162.554L130.399 158.734L125.05 155.141L127.066 153.931L139.971 162.599ZM147.301 151.995C148.109 152.537 148.714 153.086 149.116 153.641C149.519 154.196 149.731 154.743 149.754 155.28C149.777 155.818 149.611 156.339 149.255 156.844C148.887 157.341 148.336 157.809 147.601 158.25C146.929 158.653 146.198 158.954 145.409 159.152C144.608 159.341 143.778 159.418 142.921 159.38C142.077 159.335 141.223 159.173 140.36 158.894C139.497 158.615 138.656 158.201 137.836 157.651C136.764 156.93 136.041 156.207 135.667 155.481C135.306 154.748 135.288 154.039 135.611 153.355C135.936 152.654 136.583 152.013 137.554 151.431C138.475 150.878 139.483 150.526 140.577 150.375C141.672 150.208 142.793 150.256 143.938 150.519C145.096 150.774 146.217 151.266 147.301 151.995ZM139.89 156.442C140.612 156.927 141.332 157.292 142.049 157.536C142.754 157.772 143.444 157.864 144.12 157.811C144.795 157.758 145.444 157.545 146.066 157.172C146.688 156.798 147.06 156.399 147.181 155.974C147.303 155.549 147.197 155.106 146.866 154.646C146.522 154.178 145.989 153.701 145.266 153.216C144.519 152.714 143.793 152.353 143.088 152.132C142.395 151.905 141.717 151.821 141.054 151.882C140.391 151.927 139.742 152.14 139.107 152.521C138.174 153.081 137.797 153.691 137.976 154.349C138.155 155.008 138.793 155.705 139.89 156.442ZM153.611 142.026L163.353 148.569L161.766 149.522L160.202 148.828L160.109 148.884C160.235 149.237 160.238 149.588 160.119 149.935C160 150.282 159.789 150.608 159.487 150.912C159.198 151.223 158.841 151.506 158.418 151.76C157.634 152.231 156.847 152.549 156.059 152.716C155.271 152.867 154.474 152.855 153.67 152.678C152.866 152.486 152.054 152.115 151.235 151.565L144.855 147.28L146.852 146.081L152.943 150.172C153.702 150.682 154.431 150.965 155.128 151.022C155.837 151.071 156.541 150.887 157.237 150.469C157.934 150.051 158.35 149.633 158.483 149.216C158.616 148.799 158.51 148.372 158.166 147.935C157.822 147.482 157.289 147.013 156.566 146.528L151.632 143.214L153.611 142.026ZM170.386 140.856C171.025 141.285 171.399 141.742 171.509 142.228C171.619 142.713 171.484 143.216 171.103 143.735C170.71 144.247 170.084 144.76 169.225 145.276C168.516 145.701 167.852 146.031 167.233 146.264C166.639 146.498 166.034 146.677 165.418 146.802L163.737 145.673C164.39 145.542 165.093 145.357 165.847 145.119C166.588 144.874 167.239 144.583 167.799 144.247C168.546 143.799 168.967 143.401 169.061 143.053C169.169 142.697 169.029 142.39 168.644 142.131C168.427 141.985 168.172 141.893 167.879 141.855C167.573 141.808 167.156 141.828 166.627 141.916C166.098 141.988 165.383 142.141 164.483 142.375C163.595 142.586 162.807 142.745 162.118 142.852C161.416 142.951 160.779 142.958 160.205 142.873C159.619 142.781 159.055 142.552 158.513 142.188C157.669 141.621 157.373 140.979 157.624 140.262C157.876 139.529 158.581 138.815 159.738 138.12C160.348 137.754 160.981 137.451 161.636 137.211C162.292 136.955 162.99 136.751 163.729 136.599L164.54 137.974C164.121 138.057 163.714 138.163 163.318 138.293C162.923 138.408 162.54 138.538 162.169 138.684C161.81 138.823 161.468 138.99 161.145 139.184C160.547 139.542 160.184 139.875 160.053 140.184C159.923 140.492 160.02 140.755 160.345 140.973C160.574 141.127 160.842 141.22 161.147 141.251C161.465 141.275 161.889 141.235 162.419 141.131C162.948 141.028 163.645 140.871 164.508 140.659C165.359 140.44 166.123 140.28 166.8 140.181C167.489 140.074 168.12 140.07 168.694 140.17C169.28 140.263 169.844 140.492 170.386 140.856ZM169.528 132.246C170.412 131.716 171.352 131.382 172.348 131.244C173.332 131.098 174.323 131.146 175.322 131.39C176.333 131.626 177.291 132.047 178.195 132.654L179.243 133.358L172.484 137.413C173.509 138.07 174.542 138.423 175.583 138.473C176.636 138.516 177.629 138.257 178.562 137.697C179.209 137.309 179.728 136.929 180.117 136.557C180.507 136.17 180.855 135.739 181.161 135.264L182.752 136.332C182.471 136.777 182.123 137.192 181.709 137.579C181.307 137.958 180.751 138.36 180.042 138.786C179.071 139.368 178.026 139.758 176.905 139.955C175.785 140.152 174.646 140.131 173.487 139.891C172.33 139.636 171.209 139.144 170.124 138.416C169.028 137.679 168.287 136.944 167.901 136.21C167.528 135.469 167.478 134.763 167.753 134.093C168.028 133.407 168.619 132.791 169.528 132.246ZM171.01 133.242C170.3 133.667 169.951 134.161 169.961 134.721C169.984 135.275 170.367 135.849 171.112 136.444L175.854 133.599C175.348 133.259 174.821 133.008 174.274 132.846C173.727 132.684 173.176 132.631 172.623 132.687C172.07 132.743 171.533 132.928 171.01 133.242Z" fill="#080A0B"/>
<g filter="url(#filter2_d_279_3528)">
<path d="M103.18 36.5898C97.8876 39.6768 97.8876 47.3232 103.18 50.4102L228.731 123.649C231.222 125.102 234.302 125.102 236.793 123.649L362.345 50.4102C367.637 47.3232 367.637 39.6768 362.345 36.5898L236.793 -36.6486C234.302 -38.1016 231.222 -38.1016 228.731 -36.6486L103.18 36.5898Z" fill="#FDFDFD"/>
<path d="M103.18 36.5898C97.8876 39.6768 97.8876 47.3232 103.18 50.4102L228.731 123.649C231.222 125.102 234.302 125.102 236.793 123.649L362.345 50.4102C367.637 47.3232 367.637 39.6768 362.345 36.5898L236.793 -36.6486C234.302 -38.1016 231.222 -38.1016 228.731 -36.6486L103.18 36.5898Z" stroke="url(#paint2_linear_279_3528)" stroke-linecap="round" stroke-linejoin="round"/>
</g>
<g clip-path="url(#clip3_279_3528)">
<g filter="url(#filter3_d_279_3528)">
<mask id="mask0_279_3528" style="mask-type:luminance" maskUnits="userSpaceOnUse" x="166" y="-3" width="95" height="64">
<path d="M215.635 -2.54006L166.792 26.7656L211.592 60.3656L260.435 31.0599L215.635 -2.54006Z" fill="white"/>
</mask>
<g mask="url(#mask0_279_3528)">
<path d="M191.214 12.113L223.564 7.82328L245.964 24.6233L236.014 45.713L203.664 50.0027L181.264 33.2027L191.214 12.113Z" fill="#4FFA7A"/>
<path d="M203.887 14.4872C204.437 14.4554 205.045 14.7039 205.354 15.0865L213.477 25.1638L218.923 21.8959C219.25 21.6997 219.771 21.6904 220.247 21.8725C220.723 22.0546 221.064 22.3929 221.115 22.7335L224.086 42.6639C224.145 43.061 223.797 43.3644 223.247 43.3963C222.696 43.4279 222.088 43.1795 221.779 42.7968L213.656 32.7196L208.209 35.9877C207.882 36.1838 207.362 36.193 206.886 36.0109C206.41 35.8289 206.069 35.4904 206.018 35.1498L203.047 15.2196C202.988 14.8225 203.336 14.519 203.887 14.4872Z" fill="#080A0B"/>
</g>
</g>
<path d="M221.959 85.9956L218.164 88.273L223.284 92.113L220.846 93.5755L208.934 84.6411L211.371 83.1786L216.32 86.8906L220.116 84.6132L215.167 80.9012L217.604 79.4387L229.517 88.3731L227.079 89.8356L221.959 85.9956ZM232.016 74.9848L234.435 73.5335L240.216 84.0734C240.558 84.682 240.666 85.2317 240.539 85.7226C240.423 86.2221 239.969 86.71 239.175 87.1863L237.426 88.2357L235.702 86.9429L237.991 85.5697L236.941 83.8031L224.35 79.5844L226.881 78.0661L232.037 79.949L235.859 81.4341L235.99 81.356L234.214 78.6428L232.016 74.9848ZM238.112 71.3274L240.494 69.8984L242.047 71.0632L242.177 70.9851C241.903 70.4277 241.829 69.8956 241.957 69.3887C242.098 68.8744 242.54 68.394 243.284 67.9474C243.83 67.6199 244.423 67.3947 245.063 67.2719C245.704 67.133 246.379 67.1119 247.089 67.2085C247.787 67.2966 248.513 67.5061 249.267 67.8372C250.02 68.1682 250.784 68.6238 251.558 69.2041C252.332 69.7843 252.922 70.3442 253.328 70.8836C253.735 71.4229 253.97 71.9345 254.035 72.4181C254.088 72.8932 253.982 73.341 253.716 73.7615C253.451 74.166 253.046 74.5319 252.5 74.8594C251.756 75.306 250.995 75.5475 250.218 75.5839C249.453 75.6129 248.672 75.505 247.877 75.2603L247.747 75.3384L252.713 79.0632L250.332 80.4922L238.112 71.3274ZM249.755 74.1567C250.45 73.7399 250.79 73.2748 250.775 72.7613C250.773 72.2404 250.436 71.7283 249.764 71.2249L248.365 70.1753C247.694 69.6718 246.972 69.3903 246.201 69.3309C245.442 69.2641 244.715 69.4391 244.02 69.8559C243.475 70.1833 243.128 70.56 242.982 70.9859C242.836 71.3959 243.014 71.7885 243.514 72.164L246.279 74.2376C246.78 74.6131 247.347 74.7793 247.982 74.7363C248.618 74.6774 249.209 74.4841 249.755 74.1567ZM264.662 67.5625C263.893 68.0239 263.103 68.3522 262.291 68.5473C261.479 68.7424 260.67 68.8135 259.862 68.7604C259.067 68.6999 258.285 68.5239 257.517 68.2323C256.737 67.9321 255.994 67.5175 255.289 66.9885C254.572 66.4509 254.035 65.9054 253.677 65.3523C253.331 64.7916 253.158 64.2429 253.157 63.7061C253.155 63.1692 253.326 62.6523 253.668 62.1552C254.022 61.6507 254.553 61.1864 255.26 60.7621C255.955 60.3453 256.689 60.0505 257.463 59.8778C258.226 59.6964 258.994 59.6354 259.765 59.6949C260.549 59.7468 261.319 59.9144 262.076 60.1975C262.833 60.4805 263.542 60.8695 264.202 61.3645L264.918 61.9021L258.183 65.9435L258.405 66.1099C259.042 66.5877 259.777 66.8457 260.609 66.8839C261.43 66.9135 262.231 66.6939 263.013 66.225C263.608 65.8678 264.009 65.4815 264.214 65.0664C264.421 64.6352 264.485 64.1975 264.406 63.7533L267.01 63.8727C267.129 64.4309 267.019 65.0348 266.679 65.6841C266.351 66.326 265.679 66.9522 264.662 67.5625ZM256.883 61.9542C256.213 62.3561 255.867 62.8249 255.844 63.3606C255.822 63.8964 256.129 64.4032 256.766 64.8811L256.886 64.9707L261.24 62.3583L261.086 62.2431C260.449 61.7652 259.75 61.5008 258.99 61.4499C258.243 61.3916 257.54 61.5597 256.883 61.9542ZM271.341 60.9515L273.723 59.5224L268.364 55.5032L265.982 56.9323L264.258 55.6395L269.022 52.7815L271.428 54.5863L271.577 54.4969C271.357 54.2144 271.179 53.9219 271.043 53.6192C270.909 53.3006 270.851 52.9895 270.871 52.686C270.891 52.3665 271.007 52.0513 271.218 51.7405C271.428 51.4297 271.776 51.1292 272.259 50.8389L273.301 50.2137L275.349 51.7497L273.377 52.9331C272.658 53.3648 272.287 53.8485 272.264 54.3842C272.242 54.92 272.532 55.414 273.135 55.8663L276.104 58.0935L279.435 56.0951L281.159 57.3879L273.065 62.2443L271.341 60.9515ZM274.133 45.5217L278.17 43.0991C279.857 42.0869 281.622 41.7191 283.465 41.9959C285.32 42.2653 287.209 43.121 289.132 44.5631C291.066 46.0138 292.13 47.3725 292.323 48.6391C292.516 49.8898 291.77 51.0213 290.083 52.0335L286.045 54.4561L274.133 45.5217ZM288.123 50.7899C289.017 50.2541 289.407 49.6591 289.294 49.0049C289.193 48.3434 288.631 47.6286 287.607 46.8606L285.542 45.3118C284.529 44.5523 283.538 44.1023 282.569 43.9617C281.613 43.8138 280.688 44.0077 279.795 44.5435L278.325 45.4255L286.653 51.6719L288.123 50.7899ZM308.607 40.9188L305.854 42.5711L302.067 41.6403L298.851 40.7594L298.702 40.8487L299.612 43.1136L300.533 45.7636L297.965 47.3043L295.635 40.4077L286.294 38.2248L289.067 36.5613L292.271 37.3572L295.471 38.225L295.601 38.1472L294.69 35.9062L293.922 33.6478L296.49 32.1072L298.702 38.6139L308.607 40.9188Z" fill="#1A1A18"/>
</g>
</g>
<defs>
<filter id="filter0_d_279_3528" x="104.71" y="146.865" width="268.103" height="166.477" filterUnits="userSpaceOnUse" color-interpolation-filters="sRGB">
<feFlood flood-opacity="0" result="BackgroundImageFix"/>
<feColorMatrix in="SourceAlpha" type="matrix" values="0 0 0 0 0 0 0 0 0 0 0 0 0 0 0 0 0 0 127 0" result="hardAlpha"/>
<feOffset dy="3"/>
<feComposite in2="hardAlpha" operator="out"/>
<feColorMatrix type="matrix" values="0 0 0 0 0.960784 0 0 0 0 0.658824 0 0 0 0 0 0 0 0 1 0"/>
<feBlend mode="normal" in2="BackgroundImageFix" result="effect1_dropShadow_279_3528"/>
<feBlend mode="normal" in="SourceGraphic" in2="effect1_dropShadow_279_3528" result="shape"/>
</filter>
<filter id="filter1_d_279_3528" x="-46.2896" y="55.7616" width="268.103" height="166.477" filterUnits="userSpaceOnUse" color-interpolation-filters="sRGB">
<feFlood flood-opacity="0" result="BackgroundImageFix"/>
<feColorMatrix in="SourceAlpha" type="matrix" values="0 0 0 0 0 0 0 0 0 0 0 0 0 0 0 0 0 0 127 0" result="hardAlpha"/>
<feOffset dy="3"/>
<feComposite in2="hardAlpha" operator="out"/>
<feColorMatrix type="matrix" values="0 0 0 0 0.71505 0 0 0 0 0.729173 0 0 0 0 0.305497 0 0 0 1 0"/>
<feBlend mode="normal" in2="BackgroundImageFix" result="effect1_dropShadow_279_3528"/>
<feBlend mode="normal" in="SourceGraphic" in2="effect1_dropShadow_279_3528" result="shape"/>
</filter>
<filter id="filter2_d_279_3528" x="98.7104" y="-38.2384" width="268.103" height="166.477" filterUnits="userSpaceOnUse" color-interpolation-filters="sRGB">
<feFlood flood-opacity="0" result="BackgroundImageFix"/>
<feColorMatrix in="SourceAlpha" type="matrix" values="0 0 0 0 0 0 0 0 0 0 0 0 0 0 0 0 0 0 127 0" result="hardAlpha"/>
<feOffset dy="3"/>
<feComposite in2="hardAlpha" operator="out"/>
<feColorMatrix type="matrix" values="0 0 0 0 0.190486 0 0 0 0 0.704327 0 0 0 0 0.319698 0 0 0 1 0"/>
<feBlend mode="normal" in2="BackgroundImageFix" result="effect1_dropShadow_279_3528"/>
<feBlend mode="normal" in="SourceGraphic" in2="effect1_dropShadow_279_3528" result="shape"/>
</filter>
<filter id="filter3_d_279_3528" x="177.265" y="7.82324" width="72.6987" height="50.1794" filterUnits="userSpaceOnUse" color-interpolation-filters="sRGB">
<feFlood flood-opacity="0" result="BackgroundImageFix"/>
<feColorMatrix in="SourceAlpha" type="matrix" values="0 0 0 0 0 0 0 0 0 0 0 0 0 0 0 0 0 0 127 0" result="hardAlpha"/>
<feOffset dy="4"/>
<feGaussianBlur stdDeviation="2"/>
<feComposite in2="hardAlpha" operator="out"/>
<feColorMatrix type="matrix" values="0 0 0 0 0 0 0 0 0 0 0 0 0 0 0 0 0 0 0.25 0"/>
<feBlend mode="normal" in2="BackgroundImageFix" result="effect1_dropShadow_279_3528"/>
<feBlend mode="normal" in="SourceGraphic" in2="effect1_dropShadow_279_3528" result="shape"/>
</filter>
<linearGradient id="paint0_linear_279_3528" x1="178.334" y1="175.23" x2="272.333" y2="299.73" gradientUnits="userSpaceOnUse">
<stop stop-color="#F5A800" stop-opacity="0.6"/>
<stop offset="1" stop-color="#F5A800"/>
</linearGradient>
<linearGradient id="paint1_linear_279_3528" x1="87.3335" y1="220" x2="26.3335" y2="80.5" gradientUnits="userSpaceOnUse">
<stop stop-color="#FAFF69"/>
<stop offset="1" stop-color="#96993F"/>
</linearGradient>
<linearGradient id="paint2_linear_279_3528" x1="232.333" y1="126" x2="199.333" y2="-34.5" gradientUnits="userSpaceOnUse">
<stop stop-color="#4FFA7A"/>
<stop offset="1" stop-color="#2F9448"/>
</linearGradient>
<clipPath id="clip0_279_3528">
<rect width="355" height="274" fill="white"/>
</clipPath>
<clipPath id="clip1_279_3528">
<rect width="210.012" height="126.252" fill="white" transform="matrix(0.849057 -0.528302 0.830139 0.557556 93.6411 242.223)"/>
</clipPath>
<clipPath id="clip2_279_3528">
<rect width="59.44" height="59.44" fill="white" transform="matrix(0.857493 -0.514496 0.830139 0.557556 31.4692 122.285)"/>
</clipPath>
<clipPath id="clip3_279_3528">
<rect width="102.346" height="96.1573" fill="white" transform="matrix(0.857493 -0.514496 0.8 0.6 147.333 38.4412)"/>
</clipPath>
</defs>
</svg>
